<svg width="771" height="77" viewBox="0 0 771 77" fill="none" xmlns="http://www.w3.org/2000/svg">
<g clip-path="url(#clip0_37_54)">
<path d="M7.91474 0.920288L0 76.0797H7.54661L9.14183 61.0478H20.9219L22.5171 76.0797H30.0637L22.149 0.920288H7.91474ZM9.93944 53.5012L14.2956 12.1482H15.8295L20.1857 53.5012H10.0008H9.93944Z" fill="#1D252C"/>
<path d="M97.6765 49.7585H97.247L87.0008 0.920288H77V76.0797H84.5466V27.2414H84.9761L95.2223 76.0797H105.223V0.920288H97.6765V49.7585Z" fill="#1D252C"/>
<path d="M575.629 0.920288L567.714 76.0797H575.261L576.856 61.0478H588.636L590.231 76.0797H597.778L589.863 0.920288H575.629ZM577.653 53.5012L582.009 12.1482H583.543L587.9 53.5012H577.715H577.653Z" fill="#1D252C"/>
<path d="M169.093 0C161.853 0 155.963 5.89004 155.963 13.1299V63.8701C155.963 71.11 161.853 77 169.093 77C176.333 77 182.223 71.11 182.223 63.8701V34.7267H169.093V42.212H174.738V63.8088C174.738 66.9378 172.222 69.4534 169.093 69.4534C165.964 69.4534 163.449 66.9378 163.449 63.8088V13.1299C163.449 10.0008 165.964 7.48526 169.093 7.48526C172.222 7.48526 174.738 10.0008 174.738 13.1299V27.2414H182.223V13.1299C182.223 5.89004 176.333 0 169.093 0Z" fill="#1D252C"/>
<path d="M242.289 0.920288H234.804V76.0797H242.289V0.920288Z" fill="#1D252C"/>
<path d="M329.106 0C307.816 0 290.575 17.2406 290.575 38.5307C290.575 59.8207 307.816 77.0614 329.106 77.0614C350.396 77.0614 367.637 59.8207 367.637 38.5307C367.637 17.2406 350.396 0 329.106 0ZM329.106 69.5147C311.988 69.5147 298.122 55.5872 298.122 38.5307C298.122 21.4741 312.049 7.54661 329.106 7.54661C346.163 7.54661 360.09 21.4741 360.09 38.5307C360.09 55.5872 346.163 69.5147 329.106 69.5147Z" fill="#1D252C"/>
<path d="M429.052 0.920288H415.923V76.0797H423.408V53.5625H429.052C436.292 53.5625 442.182 47.6725 442.182 40.4326V14.1115C442.182 6.87168 436.292 0.981643 429.052 0.981643V0.920288ZM434.697 40.3713C434.697 43.5004 432.182 46.0159 429.052 46.0159H423.408V8.4669H429.052C432.182 8.4669 434.697 10.9824 434.697 14.1115V40.4326V40.3713Z" fill="#1D252C"/>
<path d="M510.961 34.7267H499.733V0.920288H492.186V76.0797H499.733V42.2733H510.961V76.0797H518.508V0.920288H510.961V34.7267Z" fill="#1D252C"/>
<path d="M660.114 0.920288H646.984V76.0797H654.469V53.5625H660.973L665.697 76.0797H673.244L667.967 50.9243C671.158 48.5314 673.244 44.7275 673.244 40.3713V14.1115C673.244 6.87168 667.354 0.981643 660.114 0.981643V0.920288ZM665.759 40.3713C665.759 43.5004 663.243 46.0159 660.114 46.0159H654.469V8.4669H660.114C663.243 8.4669 665.759 10.9824 665.759 14.1115V40.4326V40.3713Z" fill="#1D252C"/>
<path d="M762.331 0.920288H753.25L745.826 36.5059L738.341 0.920288H729.26L721.407 76.0797H728.954L734.844 20.1856L743.433 61.0478H748.219L756.809 20.1856L762.699 76.0797H770.245L762.331 0.920288Z" fill="#1D252C"/>
</g>
<defs>
<clipPath id="clip0_37_54">
<rect width="770.245" height="77" fill="white"/>
</clipPath>
</defs>
</svg>
